<svg width="16" height="16" viewBox="0 0 16 16" fill="none" xmlns="http://www.w3.org/2000/svg">
<path d="M3.00021 14.0954C2.99845 14.5994 3.19719 15.0834 3.55255 15.4406C3.90804 15.798 4.39094 15.9992 4.8949 16C5.39887 16.0007 5.8825 15.801 6.23903 15.4449L12.2932 9.38384C12.651 9.02613 12.8509 8.54015 12.8483 8.03429V7.97193V7.97181C12.8667 7.44748 12.6662 6.93903 12.295 6.56837L6.2372 0.522627C5.75405 0.0631271 5.0651 -0.109148 4.42251 0.0690011C3.77992 0.247036 3.27795 0.749365 3.10025 1.39208C2.92257 2.03466 3.09519 2.72349 3.55505 3.2064L8.32899 7.98034L3.55505 12.7543C3.19933 13.1099 2.99964 13.5923 3 14.0954L3.00021 14.0954Z" fill="#EA0F1E" fill-opacity="0.5"/>
</svg>
