<svg width="24" height="24" viewBox="0 0 24 24" fill="none" xmlns="http://www.w3.org/2000/svg">
<rect width="24" height="24" fill="black"/>
<path fill-rule="evenodd" clip-rule="evenodd" d="M13.7649 12.1325L21.212 19.4754C21.6272 19.8857 21.6272 20.5485 21.212 20.958C20.7967 21.3673 20.1237 21.3673 19.7093 20.958L12.2612 13.614L4.81409 20.958C4.39893 21.3673 3.72666 21.3673 3.31137 20.958C2.89621 20.5485 2.89621 19.8857 3.31137 19.4754L10.7585 12.1325L3.31137 4.78954C2.89621 4.38004 2.89621 3.71653 3.31137 3.30703C3.72666 2.89766 4.39893 2.89766 4.81409 3.30703L12.2612 10.651L12.2643 10.6487L13.767 12.1304L13.7649 12.1325ZM21.212 4.78922L15.2706 10.6481L13.7671 9.16573L19.7092 3.30748C20.1237 2.89811 20.7967 2.89811 21.2119 3.30748C21.6272 3.71698 21.6272 4.3805 21.2119 4.78925L21.212 4.78922Z" fill="white"/>
</svg>
