<svg width="768" height="816" viewBox="0 0 768 816" fill="none" xmlns="http://www.w3.org/2000/svg">
<rect width="768" height="816" fill="black"/>
<rect x="144" y="153" width="480" height="510" fill="#FF0000" fill-opacity="0.5"/>
<rect x="204" y="213" width="360" height="390" fill="black"/>
<path fill-rule="evenodd" clip-rule="evenodd" d="M554 223H214V593H554V223ZM494 283H274V533H494V283Z" fill="#800000"/>
<rect x="214" y="463" width="60" height="30" fill="#800000"/>
<line x1="214.007" y1="402.976" x2="514.007" y2="492.976" stroke="#FF0000" stroke-width="0.05"/>
<rect x="213.968" y="406" width="291.57" height="20.7675" transform="rotate(16.7 213.968 406)" fill="black"/>
<rect x="217.414" y="413" width="73.4449" height="32.9784" transform="rotate(24 217.414 413)" fill="black"/>
<rect x="232.166" y="412.244" width="147.894" height="47.9955" transform="rotate(30 232.166 412.244)" fill="black"/>
<rect x="564" y="351.274" width="73.053" height="31.4684" transform="rotate(-30 564 351.274)" fill="black"/>
<path fill-rule="evenodd" clip-rule="evenodd" d="M636 405.9V351H553.837L481.09 309L463.275 339.857L486 352.978V360.898L409.057 337.814L391 398L624.943 468.186L643 408L636 405.9Z" fill="black"/>
<rect x="229.965" y="349.785" width="331.74" height="60" transform="rotate(16.7 229.965 349.785)" fill="#800000"/>
<rect x="554" y="213" width="10" height="390" fill="black"/>
<rect x="204" y="213" width="10" height="390" fill="black"/>
<rect x="204" y="223" width="10" height="360" transform="rotate(-90 204 223)" fill="black"/>
<rect x="204" y="603" width="10" height="360" transform="rotate(-90 204 603)" fill="black"/>
<path d="M384 630L422.971 663.75H345.029L384 630Z" fill="black"/>
</svg>
